<?xml version="1.0"?>
<svg xmlns="http://www.w3.org/2000/svg" id="Solid" viewBox="0 0 512 512" width="512" height="512"><path d="M336,72V32H120A40.045,40.045,0,0,0,80,72V352H432V128H392A56.064,56.064,0,0,1,336,72ZM205.657,250.343a8,8,0,0,1-11.314,11.314l-48-48a8,8,0,0,1,0-11.314l48-48a8,8,0,0,1,11.314,11.314L163.313,208ZM287.589,138.53l-48,144a8,8,0,0,1-15.178-5.06l48-144a8,8,0,1,1,15.178,5.06Zm78.068,75.127-48,48a8,8,0,1,1-11.314-11.314L348.687,208l-42.344-42.343a8,8,0,0,1,11.314-11.314l48,48A8,8,0,0,1,365.657,213.657Z"/><path d="M392,112h28.687L352,43.313V72A40.045,40.045,0,0,0,392,112Z"/><path d="M80,440a40.045,40.045,0,0,0,40,40H392a40.045,40.045,0,0,0,40-40V368H80Zm256-48a8,8,0,0,1,16,0v56h24a8,8,0,0,1,0,16H344a8,8,0,0,1-8-8Zm-80,0a8,8,0,0,1,15.155-3.578L288,422.111l16.845-33.689A8,8,0,0,1,320,392v64a8,8,0,0,1-16,0V425.889l-8.845,17.689a8,8,0,0,1-14.31,0L272,425.889V456a8,8,0,0,1-16,0Zm-56-8h32a8,8,0,0,1,0,16h-8v56a8,8,0,0,1-16,0V400h-8a8,8,0,0,1,0-16Zm-72,8a8,8,0,0,1,16,0v24h16V392a8,8,0,0,1,16,0v64a8,8,0,0,1-16,0V432H144v24a8,8,0,0,1-16,0Z"/></svg>
