<svg id="Solid" height="512" viewBox="0 0 512 512" width="512" xmlns="http://www.w3.org/2000/svg"><path d="m392 112h28.687l-68.687-68.687v28.687a40.045 40.045 0 0 0 40 40z"/><path d="m336 72v-40h-216a40.045 40.045 0 0 0 -40 40v280h352v-224h-40a56.063 56.063 0 0 1 -56-56zm-138.343 186.343a8 8 0 0 1 -11.314 11.314l-48-48a8 8 0 0 1 0-11.314l48-48a8 8 0 0 1 11.314 11.314l-42.344 42.343zm58.343 29.657a8 8 0 1 1 8-8 8 8 0 0 1 -8 8zm8-64.8v24.8a8 8 0 0 1 -16 0v-32a8 8 0 0 1 8-8 24 24 0 1 0 -24-24 8 8 0 0 1 -16 0 40 40 0 1 1 48 39.2zm109.657-1.539-48 48a8 8 0 0 1 -11.314-11.314l42.344-42.347-42.344-42.343a8 8 0 0 1 11.314-11.314l48 48a8 8 0 0 1 0 11.314z"/><path d="m80 440a40.045 40.045 0 0 0 40 40h272a40.045 40.045 0 0 0 40-40v-72h-352zm216-48a8 8 0 0 1 8-8h16a24 24 0 0 1 0 48h-8v24a8 8 0 0 1 -16 0zm-64 0a8 8 0 0 1 16 0v24h16v-24a8 8 0 0 1 16 0v64a8 8 0 0 1 -16 0v-24h-16v24a8 8 0 0 1 -16 0zm-64 0a8 8 0 0 1 8-8h16a24 24 0 0 1 0 48h-8v24a8 8 0 0 1 -16 0z"/><path d="m328 408a8.009 8.009 0 0 0 -8-8h-8v16h8a8.009 8.009 0 0 0 8-8z"/><path d="m200 408a8.009 8.009 0 0 0 -8-8h-8v16h8a8.009 8.009 0 0 0 8-8z"/></svg>